<svg width="33" height="33" viewBox="0 0 33 33" fill="none" xmlns="http://www.w3.org/2000/svg">
<path d="M1.5 1.5H12.75V12.75H1.5V1.5ZM20.25 1.5H31.5V12.75H20.25V1.5ZM1.5 20.25H12.75V31.5H1.5V20.25ZM20.25 25.875C20.25 27.3668 20.8426 28.7976 21.8975 29.8525C22.9524 30.9074 24.3832 31.5 25.875 31.5C27.3668 31.5 28.7976 30.9074 29.8525 29.8525C30.9074 28.7976 31.5 27.3668 31.5 25.875C31.5 24.3832 30.9074 22.9524 29.8525 21.8975C28.7976 20.8426 27.3668 20.25 25.875 20.25C24.3832 20.25 22.9524 20.8426 21.8975 21.8975C20.8426 22.9524 20.25 24.3832 20.25 25.875Z" stroke="#FDA004" stroke-width="2.5" fill="none" />
</svg>
